<svg width="89" height="86" viewBox="0 0 89 86" fill="none" xmlns="http://www.w3.org/2000/svg">
<g id="file">
<path id="Vector" d="M0 80.4625V42.1339C0.639698 40.8476 1.67805 40.2797 3.1081 40.4072C3.36073 40.4304 3.618 40.391 3.87295 40.3817C6.28572 40.3979 8.70081 40.4118 11.1136 40.4281C12.2609 41.128 12.5436 42.1733 12.5066 43.4643C12.4393 45.8029 13.4707 46.8065 15.7931 46.8111C18.681 46.8181 21.5666 46.8135 24.4545 46.8111C24.7999 46.8111 25.1499 46.8459 25.4743 46.679C26.0491 46.7161 26.6239 46.7856 27.2011 46.7856C37.8928 46.7926 48.5846 46.7903 59.2763 46.7903C60.317 46.7903 61.3577 46.8042 62.396 46.7856C64.2085 46.7509 65.3071 45.6569 65.3581 43.8606C65.3674 43.5431 65.3581 43.2256 65.3627 42.9081C65.372 41.2532 65.8332 40.6992 67.4649 40.3794C70.3575 40.3979 73.2477 40.4188 76.1402 40.4373C77.4706 41.0539 77.8809 42.1571 77.8785 43.5454C77.8646 55.2755 77.8785 67.0033 77.8646 78.7334C77.8623 81.1902 76.9236 83.2183 74.9002 84.69C74.249 85.1652 73.3844 85.2648 72.8143 85.8814C71.8686 86.0714 70.9137 85.9324 69.9634 85.9324C49.3332 85.9416 28.7053 85.9393 8.07502 85.937C7.47009 85.937 6.85821 85.9324 6.25791 85.8698C3.36305 85.5615 1.43237 83.9947 0.373157 81.3061C0.259587 81.0187 0.285083 80.6711 0.00231774 80.4578L0 80.4625ZM44.401 58.4671C40.5907 58.4671 36.778 58.4532 32.9676 58.4717C30.7959 58.4833 29.1665 60.0223 29.1503 62.0179C29.1364 64.0552 30.6939 65.6544 32.8679 65.6614C40.5466 65.6915 48.2276 65.6799 55.9063 65.666C57.0536 65.666 58.0688 65.2627 58.8035 64.3449C59.7121 63.2092 59.9137 61.9367 59.3065 60.6087C58.6529 59.1786 57.4662 58.4833 55.9202 58.474C52.0797 58.4509 48.2415 58.4671 44.401 58.4648V58.4671Z" fill="#C4E2FF"/>
<path id="Vector_2" d="M3.8728 40.3848C3.8728 31.3525 3.8728 22.318 3.87976 13.2857C3.88207 10.2958 5.52072 8.18669 8.14209 7.85294C9.10859 7.73009 10.1006 7.79731 11.081 7.77645C12.7706 7.79036 14.4579 7.80426 16.1476 7.81817C16.9171 8.14034 17.7515 8.27013 18.4815 8.71977C19.6868 9.45913 20.4053 10.6064 21.1794 11.7236C22.5376 13.6844 24.3756 14.7505 26.8046 14.7366C29.5789 14.7204 32.3533 14.7366 35.1276 14.732C35.5008 14.732 35.8832 14.783 36.2308 14.586C36.8821 14.7366 37.545 14.7459 38.2079 14.7459C44.3522 14.7436 50.4989 14.7413 56.6432 14.7459C59.4407 14.7459 62.2383 14.7644 65.0381 14.776C66.9085 15.6174 67.5204 17.0637 67.4972 19.0894C67.4138 26.1863 67.4648 33.2855 67.4625 40.3848C65.8308 40.7047 65.3695 41.2586 65.3603 42.9135C65.3603 43.231 65.3649 43.5485 65.3556 43.8661C65.3046 45.6623 64.206 46.7563 62.3936 46.791C61.3529 46.8119 60.3122 46.7957 59.2739 46.7957C48.5821 46.7957 37.8903 46.7957 27.1986 46.791C26.6238 46.791 26.049 46.7215 25.4719 46.6844C24.072 46.1768 23.4577 45.1431 23.4647 43.6899C23.4647 43.2588 23.474 42.8254 23.4462 42.3943C23.3697 41.1867 22.6048 40.4149 21.388 40.4103C17.9624 40.3964 14.5391 40.4196 11.1134 40.4288C8.70067 40.4126 6.28558 40.3987 3.8728 40.3825V40.3848ZM20.0576 19.6016C17.1975 19.6016 14.3397 19.59 11.4796 19.6085C10.5665 19.6155 10.0056 20.1764 10.0125 20.9691C10.0195 21.7246 10.5502 22.2299 11.4263 22.3087C11.628 22.3273 11.8296 22.3203 12.0313 22.3203C17.3737 22.3203 22.7161 22.3226 28.0585 22.3157C28.4293 22.3157 28.8164 22.3018 29.171 22.2021C29.762 22.0352 30.0888 21.5833 30.0958 20.9806C30.1027 20.3409 29.769 19.8704 29.1432 19.6897C28.8465 19.6039 28.5174 19.6062 28.2022 19.6039C25.4881 19.5969 22.774 19.6016 20.0576 19.6039V19.6016ZM20.1225 29.6305C22.7786 29.6305 25.4371 29.6305 28.0932 29.6305C29.4329 29.6305 30.1097 29.1692 30.1074 28.2676C30.105 27.3753 29.4144 26.9071 28.0793 26.9071C22.7068 26.9071 17.3366 26.9048 11.9641 26.9118C11.621 26.9118 11.2641 26.9257 10.9373 27.0207C10.3509 27.1899 10.0264 27.6187 10.0125 28.2375C9.9986 28.8957 10.33 29.3454 10.9489 29.5354C11.2456 29.6258 11.5747 29.6281 11.8899 29.6281C14.6341 29.6351 17.376 29.6328 20.1202 29.6328L20.1225 29.6305Z" fill="#F5E166"/>
<path id="Vector_3" d="M85.6777 40.3796C85.9071 40.3912 86.1389 40.4028 86.3684 40.4167C87.8494 40.5141 88.7881 41.4481 88.7881 42.9292C88.7974 55.0255 88.8113 67.1241 88.7788 79.2204C88.7696 82.7503 86.03 85.6475 82.5047 85.8584C79.2784 86.0531 76.0428 85.9604 72.8096 85.8816C73.3797 85.2651 74.2443 85.1654 74.8955 84.6903C76.9189 83.2185 77.8576 81.1882 77.8599 78.7337C77.8738 67.0036 77.8599 55.2758 77.8738 43.5457C77.8738 42.1573 77.4659 41.0541 76.1355 40.4376C76.8911 40.4167 77.6444 40.3959 78.4 40.375C80.8243 40.375 83.251 40.375 85.6777 40.3773V40.3796Z" fill="#A1D0FF"/>
<path id="Vector_4" d="M78.4 40.3779C77.6444 40.3988 76.8911 40.4196 76.1356 40.4405C73.243 40.4219 70.3528 40.4011 67.4602 40.3825C67.4602 33.2833 67.4116 26.1863 67.495 19.0871C67.5182 17.0614 66.9063 15.6151 65.0359 14.7738C68.2135 14.7575 71.3888 14.7413 74.5641 14.7251C77.1693 14.7807 78.3931 16.03 78.3931 18.6421C78.3931 25.8874 78.3977 33.1326 78.3977 40.3779H78.4Z" fill="#FECF64"/>
<path id="Vector_5" d="M44.401 58.4675C48.2415 58.4675 52.0797 58.4513 55.9202 58.4768C57.4662 58.486 58.6552 59.1837 59.3065 60.6114C59.9137 61.9395 59.7121 63.2119 58.8035 64.3476C58.0688 65.2654 57.0536 65.6687 55.9063 65.6687C48.2276 65.6803 40.5466 65.6942 32.8679 65.6641C30.6939 65.6548 29.134 64.0579 29.1503 62.0206C29.1642 60.025 30.7959 58.4837 32.9676 58.4744C36.778 58.4559 40.5907 58.4698 44.401 58.4698V58.4675Z" fill="#F4E066"/>
<path id="Vector_6" d="M11.1136 40.4311C14.5393 40.4218 17.9626 40.3986 21.3882 40.4125C22.6073 40.4172 23.3699 41.189 23.4464 42.3965C23.4742 42.8276 23.4672 43.2587 23.4649 43.6922C23.458 45.1454 24.0722 46.1768 25.4721 46.6867C25.1476 46.8536 24.7976 46.8188 24.4523 46.8188C21.5644 46.8188 18.6788 46.8257 15.7909 46.8188C13.4708 46.8118 12.4371 45.8106 12.5043 43.472C12.5414 42.181 12.2586 41.1357 11.1113 40.4357L11.1136 40.4311Z" fill="#A1D0FF"/>
<path id="Vector_7" d="M74.5664 14.7269C71.3911 14.7431 68.2135 14.7594 65.0381 14.7756C62.2406 14.7663 59.4431 14.7478 56.6433 14.7455C50.4989 14.7408 44.3523 14.7431 38.2079 14.7455C37.5427 14.7455 36.8822 14.7362 36.2309 14.5855C34.4115 14.122 33.0046 13.1091 32.0427 11.4844C31.8226 11.1136 31.5583 10.7682 31.2941 10.4252C30.0866 8.8607 28.5105 7.86175 26.5242 7.82235C23.0661 7.75282 19.608 7.81308 16.1476 7.82003C14.458 7.80613 12.7707 7.79222 11.0811 7.77832C11.088 6.85585 11.0857 5.93339 11.1042 5.01325C11.1575 2.22963 13.2273 0.183066 15.997 0.139029C18.3008 0.101945 20.607 0.257234 22.9062 0.0185058C23.1913 -0.0116248 23.4833 -0.0208958 23.7545 0.118169C24.7187 0.732371 25.8567 1.02672 26.6795 1.91442C27.3933 2.68623 27.9287 3.56929 28.5545 4.39441C29.7713 5.99365 31.3335 6.95552 33.4125 6.94624C36.2703 6.93234 39.1281 6.94624 41.9859 6.94161C42.3289 6.94161 42.6835 6.99724 42.9918 6.77473C44.0672 7.00651 45.1542 7.09922 46.2575 7.0969C54.2885 7.08299 62.3194 7.08299 70.3504 7.10153C70.9484 7.10153 71.5487 6.89989 72.1467 7.10617C73.9939 7.85248 74.7286 9.23386 74.5896 11.1947C74.5061 12.3675 74.5687 13.5495 74.5664 14.7269Z" fill="#F8EEAE"/>
<path id="Vector_8" d="M74.5665 14.7273C74.5688 13.5499 74.5062 12.3678 74.5896 11.195C74.7287 9.23191 73.994 7.85285 72.1467 7.10654C75.5863 7.09958 79.0258 7.06714 82.463 7.09263C84.3033 7.10654 85.6545 8.50877 85.6661 10.3838C85.6893 13.7932 85.6754 17.205 85.6754 20.6144C85.6754 27.2037 85.6754 33.7931 85.6754 40.3824C83.2487 40.3824 80.8244 40.3824 78.3977 40.3801C78.3977 33.1348 78.3954 25.8895 78.3931 18.6443C78.3931 16.0322 77.1693 14.7829 74.5641 14.7273H74.5665Z" fill="#FAE67A"/>
<path id="Vector_9" d="M42.9919 6.7721C42.6837 6.9946 42.329 6.93898 41.986 6.93898C39.1282 6.9413 36.2705 6.92971 33.4127 6.94361C31.3337 6.95288 29.7715 5.99334 28.5547 4.39178C27.9266 3.56666 27.3935 2.6836 26.6796 1.91179C25.8568 1.02177 24.7188 0.729739 23.7546 0.115537C26.8117 0.115537 29.8689 0.145667 32.9236 0.10163C35.5543 0.0622286 37.5499 1.13766 38.9266 3.35111C39.9163 4.94108 41.1377 6.22743 42.9942 6.77442L42.9919 6.7721Z" fill="#FAE67B"/>
<path id="Vector_10" d="M16.1455 7.81797C19.6036 7.81101 23.064 7.75075 26.5221 7.82028C28.5084 7.85969 30.0844 8.85863 31.292 10.4231C31.5562 10.7661 31.8204 11.1115 32.0406 11.4823C33.0025 13.1094 34.4117 14.1199 36.2288 14.5835C35.8811 14.7805 35.4987 14.7295 35.1255 14.7295C32.3512 14.7318 29.5768 14.7202 26.8025 14.7341C24.3735 14.748 22.5355 13.6819 21.1773 11.721C20.4055 10.6039 19.6847 9.45661 18.4795 8.71725C17.7494 8.26761 16.9127 8.13781 16.1455 7.81565V7.81797Z" fill="#FECF64"/>
<path id="Vector_11" d="M20.0579 19.5989C22.7719 19.5989 25.486 19.5943 28.2024 19.5989C28.5176 19.5989 28.8468 19.5989 29.1434 19.6846C29.7715 19.8654 30.1053 20.3359 30.096 20.9756C30.0891 21.5782 29.7623 22.0325 29.1712 22.1971C28.8166 22.2967 28.4319 22.3106 28.0587 22.3106C22.7163 22.3176 17.3739 22.3153 12.0315 22.3153C11.8299 22.3153 11.6259 22.3222 11.4266 22.3037C10.5505 22.2249 10.0197 21.7173 10.0128 20.964C10.0058 20.1714 10.5667 19.6105 11.4799 19.6035C14.3377 19.585 17.1978 19.5966 20.0579 19.5943V19.5989Z" fill="#F5F7F3"/>
<path id="Vector_12" d="M20.1228 29.6298C17.3785 29.6298 14.6367 29.6322 11.8924 29.6252C11.5772 29.6252 11.2481 29.6206 10.9514 29.5325C10.3303 29.3448 10.0012 28.8928 10.0151 28.2346C10.029 27.6157 10.3535 27.1869 10.9399 27.0177C11.2643 26.9227 11.6236 26.9088 11.9666 26.9088C17.3391 26.9019 22.7094 26.9042 28.0819 26.9042C29.4169 26.9042 30.1053 27.3724 30.1099 28.2647C30.1122 29.1663 29.4355 29.6252 28.0958 29.6275C25.4397 29.6275 22.7812 29.6275 20.1251 29.6275L20.1228 29.6298Z" fill="#F5F7F3"/>
</g>
</svg>
