<svg width="13" height="8" viewBox="0 0 13 8" fill="none" xmlns="http://www.w3.org/2000/svg">
<path d="M6.50442 5.91388L11.5432 0.287081C11.7146 0.0956936 11.9145 0.00318952 12.1431 0.00956911C12.3716 0.0159487 12.5715 0.114832 12.7429 0.306219C12.9143 0.497607 13 0.720892 13 0.976076C13 1.23126 12.9143 1.45454 12.7429 1.64593L7.48133 7.54067C7.34422 7.69378 7.18997 7.80861 7.01859 7.88517C6.8472 7.96172 6.67581 8 6.50442 8C6.33304 8 6.16165 7.96172 5.99026 7.88517C5.81887 7.80861 5.66463 7.69378 5.52752 7.54067L0.248788 1.64593C0.0774004 1.45455 -0.00543677 1.22807 0.000276124 0.966507C0.00598902 0.704944 0.0945391 0.478469 0.265926 0.287082C0.437314 0.095694 0.637265 4.48981e-07 0.865782 4.38993e-07C1.0943 4.29004e-07 1.29425 0.095694 1.46564 0.287082L6.50442 5.91388Z" fill="#212121"/>
</svg>
