<svg width="13" height="24" viewBox="0 0 13 24" fill="none" xmlns="http://www.w3.org/2000/svg">
<path d="M3.38995 12.0082L12.5335 21.3105C12.8445 21.6269 12.9948 21.9961 12.9845 22.418C12.9741 22.8398 12.8134 23.209 12.5024 23.5254C12.1914 23.8418 11.8286 24 11.4139 24C10.9992 24 10.6364 23.8418 10.3254 23.5254L0.746412 13.8117C0.497608 13.5586 0.311005 13.2738 0.186603 12.9574C0.062201 12.641 0 12.3246 0 12.0082C0 11.6918 0.062201 11.3754 0.186603 11.0589C0.311005 10.7425 0.497608 10.4578 0.746412 10.2046L10.3254 0.459301C10.6364 0.142894 11.0044 -0.0100366 11.4294 0.000510334C11.8545 0.0110572 12.2225 0.174534 12.5335 0.490942C12.8445 0.807349 13 1.17649 13 1.59837C13 2.02024 12.8445 2.38938 12.5335 2.70579L3.38995 12.0082Z" fill="white"/>
</svg>
